<?xml version="1.0" encoding="UTF-8" ?>
<!DOCTYPE svg PUBLIC "-//W3C//DTD SVG 1.1//EN" "http://www.w3.org/Graphics/SVG/1.1/DTD/svg11.dtd">
<svg width="136pt" height="113pt" viewBox="0 0 136 113" version="1.1" xmlns="http://www.w3.org/2000/svg">
<path fill="#ffffff" d=" M 0.00 0.00 L 61.79 0.00 C 54.56 8.03 44.66 14.42 41.08 25.08 C 37.98 36.10 42.75 47.34 49.38 56.04 C 54.20 51.30 59.00 46.54 63.78 41.77 C 68.98 36.58 72.32 29.37 72.11 21.95 C 71.70 13.90 67.94 6.51 63.42 0.00 L 136.00 0.00 L 136.00 113.00 L 0.00 113.00 L 0.00 0.00 Z" />
<path fill="#f6ab00" d=" M 61.79 0.00 L 63.42 0.00 C 67.94 6.51 71.70 13.90 72.11 21.95 C 72.32 29.37 68.98 36.58 63.78 41.77 C 59.00 46.54 54.20 51.30 49.38 56.04 C 42.75 47.34 37.98 36.10 41.08 25.08 C 44.66 14.42 54.56 8.03 61.79 0.00 Z" />
<path fill="#ffffff" d=" M 46.06 26.88 C 48.37 18.28 55.94 12.83 61.93 6.83 C 65.13 13.08 68.08 20.15 66.36 27.28 C 64.12 36.21 56.77 42.41 50.15 48.22 C 46.74 41.76 43.89 34.22 46.06 26.88 Z" />
<path fill="#f6ab00" d=" M 9.95 25.95 C 17.49 27.33 25.40 29.34 30.91 35.06 C 35.83 40.00 37.90 47.20 37.77 54.05 C 37.66 59.56 37.96 65.07 37.54 70.57 C 29.80 69.09 21.58 66.90 15.99 60.95 C 11.85 56.41 9.58 50.14 9.94 44.00 C 9.99 37.98 9.97 31.97 9.95 25.95 Z" />
<path fill="#ffffff" d=" M 14.66 32.29 C 20.42 33.96 27.10 36.14 29.82 42.03 C 33.61 48.73 32.16 56.66 32.39 63.99 C 27.76 62.74 22.99 60.94 19.51 57.53 C 13.89 50.38 14.70 40.83 14.66 32.29 Z" />
<path fill="#f6ab00" d=" M 81.81 37.83 C 89.75 34.59 98.91 35.58 106.48 39.37 C 113.47 42.98 120.41 46.70 127.37 50.38 C 121.08 58.66 113.45 67.04 102.93 69.56 C 95.44 71.71 87.52 69.59 80.78 66.14 C 74.33 62.73 67.88 59.32 61.45 55.85 C 66.66 48.37 73.19 41.31 81.81 37.83 Z" />
<path fill="#ffffff" d=" M 68.92 54.09 C 74.56 46.63 83.39 40.84 93.01 41.11 C 103.01 41.57 111.02 48.18 119.82 52.11 C 114.00 59.31 105.52 65.28 95.91 65.03 C 85.82 64.80 77.73 58.09 68.92 54.09 Z" />
<path fill="#f6ab00" d=" M 67.37 70.48 C 70.19 70.82 73.43 71.23 75.34 73.61 C 77.79 76.62 76.89 80.69 77.26 84.26 C 73.66 83.77 69.53 82.57 67.96 78.92 C 67.25 76.17 67.56 73.29 67.37 70.48 Z" />
<path fill="#f6ab00" d=" M 12.01 88.58 C 16.10 82.76 21.31 76.25 28.91 75.54 C 37.10 74.52 43.88 79.99 51.18 82.66 C 47.42 90.53 39.12 97.45 29.93 95.93 C 23.59 94.50 17.94 91.10 12.01 88.58 Z" />
<path fill="#ffffff" d=" M 19.66 86.22 C 22.25 83.72 25.27 81.33 28.97 80.93 C 34.36 80.08 39.33 82.92 43.95 85.28 C 40.37 88.86 35.38 91.71 30.14 90.63 C 26.46 89.69 23.02 87.99 19.66 86.22 Z" />
<path fill="#f6ab00" d=" M 50.17 89.36 C 53.45 85.50 58.21 83.38 62.29 80.50 C 64.42 85.16 66.48 90.78 63.84 95.67 C 61.28 101.26 55.15 103.41 50.57 106.94 C 47.53 101.65 46.42 94.59 50.17 89.36 Z" />
</svg>
