<?xml version="1.0" encoding="UTF-8" ?>
<!DOCTYPE svg PUBLIC "-//W3C//DTD SVG 1.1//EN" "http://www.w3.org/Graphics/SVG/1.1/DTD/svg11.dtd">
<svg width="262pt" height="160pt" viewBox="0 0 262 160" version="1.1" xmlns="http://www.w3.org/2000/svg">
<path fill="#ffffff" d=" M 0.00 0.00 L 262.00 0.00 L 262.00 160.00 L 0.00 160.00 L 0.00 0.00 Z" />
<path fill="#f6ab00" d=" M 110.84 35.89 C 115.52 31.32 120.05 26.60 124.81 22.10 C 129.56 28.87 133.68 36.50 134.11 44.93 C 134.32 52.38 130.96 59.62 125.73 64.83 C 120.94 69.56 116.19 74.35 111.35 79.03 C 106.39 72.01 101.71 63.90 102.25 55.00 C 101.81 47.68 105.84 40.91 110.84 35.89 Z" />
<path fill="#ffffff" d=" M 108.07 49.82 C 110.41 41.24 117.97 35.81 123.94 29.81 C 127.23 36.30 130.32 43.76 128.13 51.11 C 125.69 59.69 118.48 65.51 112.18 71.29 C 108.77 64.78 105.86 57.20 108.07 49.82 Z" />
<path fill="#f6ab00" d=" M 71.96 48.98 C 80.87 50.40 90.47 53.47 95.65 61.43 C 101.79 71.01 99.34 82.84 99.61 93.55 C 92.09 92.18 84.19 90.06 78.57 84.55 C 74.30 80.22 71.80 74.09 71.94 68.00 C 71.97 61.66 71.98 55.32 71.96 48.98 Z" />
<path fill="#ffffff" d=" M 76.67 55.28 C 82.20 56.95 88.60 58.91 91.49 64.41 C 95.63 71.23 94.21 79.49 94.38 87.05 C 88.82 85.26 82.12 83.23 79.55 77.41 C 75.96 70.61 76.77 62.69 76.67 55.28 Z" />
<path fill="#f6ab00" d=" M 140.41 62.44 C 146.26 59.18 153.28 58.01 159.84 59.44 C 165.59 60.44 170.66 63.48 175.74 66.19 C 180.32 68.52 184.82 71.00 189.37 73.38 C 182.89 81.93 174.91 90.60 163.91 92.79 C 155.19 94.95 146.41 91.36 138.93 87.11 C 133.76 84.36 128.58 81.63 123.44 78.84 C 128.00 72.40 133.38 66.25 140.41 62.44 Z" />
<path fill="#ffffff" d=" M 130.90 77.07 C 136.58 69.69 145.31 63.87 154.91 64.11 C 164.95 64.54 173.00 71.15 181.83 75.12 C 176.01 82.26 167.60 88.24 158.02 88.03 C 147.89 87.84 139.74 81.11 130.90 77.07 Z" />
<path fill="#f6ab00" d=" M 129.38 93.39 C 132.16 93.97 135.46 94.18 137.34 96.62 C 139.78 99.64 138.89 103.75 139.27 107.33 C 135.68 106.67 131.45 105.60 129.93 101.84 C 129.29 99.08 129.52 96.21 129.38 93.39 Z" />
<path fill="#f6ab00" d=" M 73.99 111.58 C 77.94 106.02 82.74 99.95 89.84 98.64 C 98.45 97.13 105.68 102.83 113.29 105.73 C 109.35 113.18 101.82 120.02 92.84 119.06 C 86.11 117.91 80.22 114.17 73.99 111.58 Z" />
<path fill="#ffffff" d=" M 81.59 109.24 C 84.25 106.79 87.25 104.30 91.00 103.93 C 96.40 103.10 101.36 105.94 105.99 108.30 C 102.50 111.57 97.98 114.48 92.97 113.74 C 88.91 113.07 85.26 110.99 81.59 109.24 Z" />
<path fill="#f6ab00" d=" M 112.17 112.38 C 115.45 108.51 120.21 106.36 124.31 103.50 C 126.27 107.99 128.36 113.25 126.13 118.05 C 123.72 124.02 117.31 126.38 112.50 129.96 C 109.65 124.59 108.35 117.62 112.17 112.38 Z" />
</svg>
